<svg width="256" height="256" viewBox="0 0 256 256" fill="none" xmlns="http://www.w3.org/2000/svg">
<path d="M231.691 136.021C233.137 117.653 229.657 99.2314 221.611 82.656C208.292 95.3108 192.548 105.137 175.328 111.541C176.712 128.537 175.946 145.639 173.045 162.443C194 157.165 213.854 148.22 231.691 136.021ZM156.096 165.867C159.503 149.579 160.694 132.905 159.637 116.299C149.483 118.72 138.891 120 128 120C117.109 120 106.517 118.72 96.3627 116.299C95.3306 132.905 96.5216 149.575 99.904 165.867C118.526 168.721 137.474 168.721 156.096 165.867ZM104.235 182.603C120.023 184.471 135.977 184.471 151.765 182.603C146.339 200.07 138.328 216.627 128 231.723C117.671 216.627 109.661 200.07 104.235 182.603ZM82.9547 162.453C80.0388 145.644 79.2718 128.533 80.672 111.531C63.4483 105.128 47.7005 95.3016 34.3787 82.6453C26.334 99.2249 22.8581 117.65 24.3093 136.021C42.1455 148.22 62.0002 157.176 82.9547 162.453ZM227.797 157.355C222.412 175.605 212.13 192.031 198.068 204.85C184.006 217.669 166.701 226.391 148.032 230.069C157.382 214.349 164.517 197.415 169.237 179.744C189.819 175.43 209.585 167.877 227.797 157.365V157.355ZM28.2027 157.355C46.144 167.712 65.856 175.36 86.7627 179.744C91.4827 197.415 98.6185 214.349 107.968 230.069C89.3001 226.392 71.9962 217.671 57.9343 204.854C43.8724 192.037 33.5899 175.613 28.2027 157.365V157.355ZM148.032 25.92C174.461 31.1147 197.846 46.3555 213.269 68.4373C201.884 79.94 188.294 89.0248 173.312 95.1467C169.275 70.6967 160.701 47.2175 148.032 25.92ZM128 24.2773C143.567 47.0197 153.795 72.9852 157.92 100.235C148.352 102.688 138.325 104 128 104C117.675 104 107.648 102.699 98.08 100.235C102.205 72.9851 112.433 47.0195 128 24.2773ZM107.968 25.92C95.2984 47.2174 86.7243 70.6967 82.688 95.1467C67.7062 89.025 54.1153 79.9403 42.7307 68.4373C58.1551 46.3587 81.5402 31.111 107.968 25.92Z" fill="#1C1917"/>
</svg>
