<svg enable-background="new 0 0 64 64" viewBox="0 0 64 64" xmlns="http://www.w3.org/2000/svg"><circle cx="32" cy="32" fill="#77b3d4" r="32"/><path d="m52 48c0 2.2-1.8 4-4 4h-32c-2.2 0-4-1.8-4-4v-30c0-2.2 1.8-4 4-4h32c2.2 0 4 1.8 4 4z" fill="#231f20" opacity=".2"/><path d="m12 21.5v24.5c0 2.2 1.8 4 4 4h32c2.2 0 4-1.8 4-4v-24.5z" fill="#fff"/><path d="m52 18c0-2.2-1.8-4-4-4h-32c-2.2 0-4 1.8-4 4v6h40z" fill="#231f20" opacity=".2"/><path d="m52 16c0-2.2-1.8-4-4-4h-32c-2.2 0-4 1.8-4 4v6h40z" fill="#e0e0d1"/><circle cx="23" cy="17" fill="#e0995e" r="2"/><circle cx="29" cy="17" fill="#76c2af" r="2"/><circle cx="17" cy="17" fill="#c75c5c" r="2"/><path d="m16 28h12v18h-12z" fill="#4f5d73"/><g fill="#e0e0d1"><path d="m32 28h16v2h-16z"/><path d="m32 32h16v2h-16z"/><path d="m32 36h16v2h-16z"/><path d="m32 40h16v2h-16z"/><path d="m32 44h16v2h-16z"/></g></svg>