<svg enable-background="new 0 0 64 64" viewBox="0 0 64 64" xmlns="http://www.w3.org/2000/svg"><circle cx="32" cy="32" fill="#e0e0d1" r="32"/><path d="m33.8 53.6c-1 .6-2.5.6-3.5 0l-17.6-10.5c-1-.6-1-1.5 0-2.1l17.5-10.5c1-.6 2.5-.6 3.5 0l17.5 10.5c1 .6 1 1.5 0 2.1z" fill="#231f20" opacity=".2"/><path d="m33.8 51.6c-1 .6-2.5.6-3.5 0l-17.6-10.5c-1-.6-1-1.5 0-2.1l17.5-10.5c1-.6 2.5-.6 3.5 0l17.5 10.5c1 .6 1 1.5 0 2.1z" fill="#c75c5c"/><path d="m33.8 45.6c-1 .6-2.5.6-3.5 0l-17.6-10.5c-1-.6-1-1.5 0-2.1l17.5-10.5c1-.6 2.5-.6 3.5 0l17.5 10.5c1 .6 1 1.5 0 2.1z" fill="#231f20" opacity=".2"/><path d="m33.8 43.6c-1 .6-2.5.6-3.5 0l-17.6-10.5c-1-.6-1-1.5 0-2.1l17.5-10.5c1-.6 2.5-.6 3.5 0l17.5 10.5c1 .6 1 1.5 0 2.1z" fill="#76c2af"/><path d="m33.8 37.6c-1 .6-2.5.6-3.5 0l-17.6-10.5c-1-.6-1-1.5 0-2.1l17.5-10.5c1-.6 2.5-.6 3.5 0l17.5 10.5c1 .6 1 1.5 0 2.1z" fill="#231f20" opacity=".2"/><path d="m33.8 35.6c-1 .6-2.5.6-3.5 0l-17.6-10.5c-1-.6-1-1.5 0-2.1l17.5-10.5c1-.6 2.5-.6 3.5 0l17.5 10.5c1 .6 1 1.5 0 2.1z" fill="#4f5d73"/></svg>