<svg width="256" height="256" viewBox="0 0 256 256" fill="none" xmlns="http://www.w3.org/2000/svg">
<path fill-rule="evenodd" clip-rule="evenodd" d="M128 72C127.998 63.2534 130.044 54.6278 133.976 46.8145C137.907 39.0012 143.614 32.2174 150.639 27.0068C157.665 21.7962 165.813 18.3037 174.431 16.8091C183.049 15.3144 191.897 15.8593 200.267 18.4C201.589 18.8008 202.786 19.5374 203.739 20.5381C204.693 21.5389 205.371 22.7696 205.707 24.1103C206.043 25.4509 206.026 26.8559 205.658 28.1881C205.29 29.5203 204.582 30.7344 203.605 31.712L168.192 67.1147C168.864 72.1813 171.136 77.0773 175.029 80.9707C178.923 84.864 183.819 87.136 188.896 87.7973L224.288 52.3947C225.266 51.4175 226.48 50.7103 227.812 50.342C229.144 49.9737 230.549 49.9569 231.89 50.2931C233.23 50.6293 234.461 51.3072 235.462 52.2606C236.463 53.2141 237.199 54.4105 237.6 55.7333C240.258 64.4891 240.731 73.7629 238.975 82.7434C237.22 91.724 233.291 100.138 227.532 107.248C221.773 114.359 214.359 119.95 205.939 123.532C197.519 127.114 188.349 128.579 179.232 127.797C168.373 126.88 159.285 128.864 154.603 134.56L78.336 227.2C75.2132 230.973 71.3369 234.053 66.9551 236.242C62.5734 238.431 57.7828 239.681 52.8902 239.911C47.9976 240.142 43.1108 239.348 38.5426 237.581C33.9745 235.814 29.8257 233.112 26.3618 229.649C22.898 226.186 20.1956 222.038 18.4275 217.47C16.6594 212.902 15.8647 208.016 16.0942 203.123C16.3237 198.231 17.5724 193.44 19.7604 189.058C21.9483 184.675 25.0272 180.798 28.8 177.675L121.429 101.397C127.115 96.704 129.109 87.6267 128.192 76.768C128.061 75.1821 127.997 73.5913 128 72ZM43.9147 204C43.9147 201.878 44.7575 199.843 46.2578 198.343C47.7581 196.843 49.7929 196 51.9147 196H52C54.1217 196 56.1566 196.843 57.6568 198.343C59.1571 199.843 60 201.878 60 204V204.085C60 206.207 59.1571 208.242 57.6568 209.742C56.1566 211.242 54.1217 212.085 52 212.085H51.9147C49.7929 212.085 47.7581 211.242 46.2578 209.742C44.7575 208.242 43.9147 206.207 43.9147 204.085V204Z" fill="#1C1917"/>
<path d="M107.477 92.16L84 68.6933V51.9893C83.9999 50.6082 83.6423 49.2506 82.9619 48.0487C82.2815 46.8468 81.3015 45.8415 80.1174 45.1307L40.1173 21.1307C38.5875 20.2136 36.795 19.8341 35.0247 20.0524C33.2544 20.2708 31.6078 21.0746 30.3467 22.336L22.3467 30.336C21.0853 31.5971 20.2815 33.2437 20.0631 35.014C19.8447 36.7843 20.2242 38.5768 21.1413 40.1067L45.1413 80.1067C45.8522 81.2908 46.8575 82.2708 48.0594 82.9512C49.2613 83.6316 50.6189 83.9893 52 83.9893H68.6827L90.6774 105.984L107.477 92.1493V92.16Z" fill="#1C1917"/>
<path fill-rule="evenodd" clip-rule="evenodd" d="M133.931 184.843L178.549 229.451C181.892 232.794 185.861 235.445 190.229 237.255C194.596 239.064 199.278 239.995 204.005 239.995C208.733 239.995 213.414 239.064 217.782 237.255C222.15 235.445 226.118 232.794 229.461 229.451C232.804 226.108 235.456 222.139 237.265 217.771C239.074 213.404 240.006 208.722 240.006 203.995C240.006 199.267 239.074 194.586 237.265 190.218C235.456 185.85 232.804 181.882 229.461 178.539L194.197 143.285C188.792 144.052 183.317 144.206 177.877 143.744C173.675 143.381 170.603 143.68 168.629 144.192C168.005 144.324 167.404 144.551 166.848 144.864L133.931 184.843ZM170.347 170.336C171.847 168.838 173.88 167.996 176 167.996C178.12 167.996 180.153 168.838 181.653 170.336L201.653 190.347C202.439 191.079 203.07 191.962 203.507 192.944C203.944 193.925 204.179 194.984 204.198 196.058C204.217 197.133 204.02 198.2 203.617 199.196C203.215 200.192 202.616 201.097 201.856 201.856C201.097 202.616 200.192 203.215 199.196 203.617C198.2 204.02 197.133 204.217 196.058 204.198C194.984 204.179 193.925 203.944 192.944 203.507C191.962 203.07 191.079 202.439 190.347 201.653L170.347 181.653C168.849 180.153 168.007 178.12 168.007 176C168.007 173.88 168.849 171.847 170.347 170.347V170.336Z" fill="#1C1917"/>
</svg>
