<svg enable-background="new 0 0 64 64" viewBox="0 0 64 64" xmlns="http://www.w3.org/2000/svg"><circle cx="31.8" cy="32" fill="#e0e0d1" r="32"/><path d="m32 12c-8.5 0-18 5.4-21.1 15.7-1.6 5.2 5.2 3.1 5.6 9.2.4 4.9-1.1 6.6-1.4 9.6-.4 4 8.9 10 17.2 9.6 12.3-.7 21.7-9.8 21.7-22.1s-9.7-22-22-22zm-8 36c-2.2 0-4-1.8-4-4s1.8-4 4-4 4 1.8 4 4-1.8 4-4 4z" fill="#231f20" opacity=".2"/><path d="m32 10c-8.5 0-18 5.4-21.1 15.7-1.6 5.2 5.2 3.1 5.6 9.2.4 4.9-1.1 6.6-1.4 9.6-.4 4 8.9 10 17.2 9.6 12.3-.7 21.7-9.8 21.7-22.1s-9.7-22-22-22zm-8 36c-2.2 0-4-1.8-4-4s1.8-4 4-4 4 1.8 4 4-1.8 4-4 4z" fill="#e0995e"/><g fill="#231f20"><circle cx="20.7" cy="25" opacity=".2" r="4"/><circle cx="32" cy="19.6" opacity=".2" r="4"/><circle cx="43.2" cy="24.7" opacity=".2" r="4"/><circle cx="46.2" cy="37.3" opacity=".2" r="4"/><circle cx="37.1" cy="47.1" opacity=".2" r="4"/></g><circle cx="20.7" cy="23" fill="#c75c5c" r="4"/><circle cx="32" cy="17.6" fill="#f5cf87" r="4"/><circle cx="43.2" cy="22.7" fill="#76c2af" r="4"/><circle cx="46.2" cy="35.3" fill="#fff" r="4"/><circle cx="37.1" cy="45.1" fill="#4f5d73" r="4"/></svg>