<svg enable-background="new 0 0 64 64" viewBox="0 0 64 64" xmlns="http://www.w3.org/2000/svg"><circle cx="32" cy="32" fill="#c75c5c" r="32"/><path d="m52.9 28.1c-.3-1-1.1-1.6-2.1-1.8l-11.3-1.6-5.1-10.3c-.4-.9-1.4-1.5-2.4-1.5s-1.9.6-2.4 1.5l-5.1 10.3-11.3 1.6c-1 .1-1.8.8-2.1 1.8s-.1 2 .7 2.7l8.2 8-1.9 11.2c-.2 1 .2 2 1 2.6.5.3 1 .5 1.5.5.4 0 .8-.1 1.2-.3l10.2-5.3 10.1 5.3c.4.2.8.3 1.2.3.5 0 1.1-.2 1.5-.5.8-.6 1.2-1.6 1-2.6l-1.8-11.3 8.2-8c.7-.6 1-1.7.7-2.6z" fill="#231f20" opacity=".2"/><path d="m52.9 26.1c-.3-1-1.1-1.6-2.1-1.8l-11.3-1.6-5.1-10.3c-.4-.9-1.4-1.5-2.4-1.5s-1.9.6-2.4 1.5l-5.1 10.3-11.3 1.6c-1 .1-1.8.8-2.1 1.8s-.1 2 .7 2.7l8.2 8-1.9 11.2c-.2 1 .2 2 1 2.6.5.3 1 .5 1.5.5.4 0 .8-.1 1.2-.3l10.2-5.3 10.1 5.3c.4.2.8.3 1.2.3.5 0 1.1-.2 1.5-.5.8-.6 1.2-1.6 1-2.6l-1.8-11.3 8.2-8c.7-.6 1-1.7.7-2.6z" fill="#f5cf87"/></svg>