<svg width="256" height="256" viewBox="0 0 256 256" fill="none" xmlns="http://www.w3.org/2000/svg">
<path fill-rule="evenodd" clip-rule="evenodd" d="M24 44C24 32.9493 32.96 24 44 24H100C111.051 24 120 32.96 120 44V184C120 196.73 114.943 208.939 105.941 217.941C96.9394 226.943 84.7304 232 72 232C59.2696 232 47.0606 226.943 38.0589 217.941C29.0571 208.939 24 196.73 24 184V44ZM72 196C75.1826 196 78.2348 194.736 80.4853 192.485C82.7357 190.235 84 187.183 84 184C84 180.817 82.7357 177.765 80.4853 175.515C78.2348 173.264 75.1826 172 72 172C68.8174 172 65.7652 173.264 63.5147 175.515C61.2643 177.765 60 180.817 60 184C60 187.183 61.2643 190.235 63.5147 192.485C65.7652 194.736 68.8174 196 72 196Z" fill="#1C1917"/>
<path d="M114.336 232H212C223.051 232 232 223.04 232 212V156C232 144.949 223.04 136 212 136H210.507L117.259 229.259C116.299 230.208 115.339 231.125 114.336 232ZM135.872 188L204.928 118.944C208.677 115.194 210.782 110.108 210.782 104.805C210.782 99.5027 208.677 94.4171 204.928 90.6667L165.333 51.0613C161.583 47.3127 156.497 45.2069 151.195 45.2069C145.892 45.2069 140.806 47.3127 137.056 51.0613L135.989 52.1173V184C135.989 185.344 135.957 186.677 135.883 188H135.872Z" fill="#1C1917"/>
</svg>
