<svg width="256" height="256" viewBox="0 0 256 256" fill="none" xmlns="http://www.w3.org/2000/svg">
<path d="M16 92.48V184C16 192.487 19.3714 200.626 25.3726 206.627C31.3737 212.629 39.5131 216 48 216H208C216.487 216 224.626 212.629 230.627 206.627C236.629 200.626 240 192.487 240 184V92.48L144.768 151.072C139.725 154.174 133.921 155.817 128 155.817C122.079 155.817 116.275 154.174 111.232 151.072L16 92.48Z" fill="#1C1917"/>
<path d="M240 73.6853V72C240 63.5131 236.629 55.3737 230.627 49.3726C224.626 43.3714 216.487 40 208 40H48C39.5131 40 31.3737 43.3714 25.3726 49.3726C19.3714 55.3737 16 63.5131 16 72V73.6853L119.616 137.451C122.137 139.002 125.04 139.823 128 139.823C130.96 139.823 133.863 139.002 136.384 137.451L240 73.6853Z" fill="#1C1917"/>
</svg>
