<svg width="256" height="256" viewBox="0 0 256 256" fill="none" xmlns="http://www.w3.org/2000/svg">
<path d="M24 64C24 55.5131 27.3714 47.3737 33.3726 41.3726C39.3737 35.3714 47.5131 32 56 32H200C208.487 32 216.626 35.3714 222.627 41.3726C228.629 47.3737 232 55.5131 232 64V192C232 200.487 228.629 208.626 222.627 214.627C216.626 220.629 208.487 224 200 224H56C47.5131 224 39.3737 220.629 33.3726 214.627C27.3714 208.626 24 200.487 24 192V64ZM216 96H40V192C40 196.243 41.6857 200.313 44.6863 203.314C47.6869 206.314 51.7565 208 56 208H200C204.243 208 208.313 206.314 211.314 203.314C214.314 200.313 216 196.243 216 192V96ZM56 56C53.8783 56 51.8434 56.8429 50.3431 58.3431C48.8429 59.8434 48 61.8783 48 64V64.0853C48 68.5013 51.584 72.0853 56 72.0853H56.0853C58.2071 72.0853 60.2419 71.2425 61.7422 69.7422C63.2425 68.2419 64.0853 66.2071 64.0853 64.0853V64C64.0853 61.8783 63.2425 59.8434 61.7422 58.3431C60.2419 56.8429 58.2071 56 56.0853 56H56ZM72 64C72 61.8783 72.8429 59.8434 74.3431 58.3431C75.8434 56.8429 77.8783 56 80 56H80.0853C82.2071 56 84.2419 56.8429 85.7422 58.3431C87.2425 59.8434 88.0853 61.8783 88.0853 64V64.0853C88.0853 66.2071 87.2425 68.2419 85.7422 69.7422C84.2419 71.2425 82.2071 72.0853 80.0853 72.0853H80C77.8783 72.0853 75.8434 71.2425 74.3431 69.7422C72.8429 68.2419 72 66.2071 72 64.0853V64ZM104 56C101.878 56 99.8434 56.8429 98.3432 58.3431C96.8429 59.8434 96 61.8783 96 64V64.0853C96 68.5013 99.584 72.0853 104 72.0853H104.085C106.207 72.0853 108.242 71.2425 109.742 69.7422C111.242 68.2419 112.085 66.2071 112.085 64.0853V64C112.085 61.8783 111.242 59.8434 109.742 58.3431C108.242 56.8429 106.207 56 104.085 56H104Z" fill="#1C1917"/>
</svg>
